<svg id="Layer_1" data-name="Layer 1" xmlns="http://www.w3.org/2000/svg" viewBox="0 0 414.63 334.25"><defs><style>.cls-1{fill:#6d6e71;}.cls-2{fill:none;stroke:#231f20;stroke-miterlimit:10;}.cls-3{fill:#a98a5b;}.cls-4{fill:#231f20;}</style></defs><path class="cls-1" d="M68,276.71H64.84l-2.36-8.32h-.06l-2.33,8.32H56.94l-3.8-11h2.94l2.4,8.06h.05l2.25-8.06h3.37l2.24,8.06h0l2.42-8.06h2.92Z"/><path class="cls-1" d="M80.65,276.71v-11H92.58v2.1H83.32v2.28h6.44v2.1H83.32v2.43H93v2.1Z"/><path class="cls-1" d="M102,276.71v-11h2.67v8.9h8.47v2.1Z"/><path class="cls-1" d="M121.82,276.71v-11h2.68v8.9H133v2.1Z"/><path class="cls-1" d="M151.84,276.71l-7.47-7.86h0v7.86h-2.68v-11h3.12l7.46,7.87h.06V265.7H155v11Z"/><path class="cls-1" d="M165.19,276.71v-11h11.93v2.1h-9.26v2.28h6.43v2.1h-6.43v2.43h9.69v2.1Z"/><path class="cls-1" d="M194.73,267.87a10.09,10.09,0,0,0-2.48-.3,8.25,8.25,0,0,0-2.61.31q-.87.31-.87.84c0,.38.32.64,1,.79a5.2,5.2,0,0,0,.85.14c.3,0,.63.06,1,.07l1.11,0c.39,0,.8,0,1.22.08a16.72,16.72,0,0,1,2.25.35,5.81,5.81,0,0,1,1.6.61,2.59,2.59,0,0,1,.95,1,2.87,2.87,0,0,1,.31,1.38,3.12,3.12,0,0,1-1.63,2.8,9.27,9.27,0,0,1-4.8,1,14.42,14.42,0,0,1-3.82-.49,11.27,11.27,0,0,1-3.33-1.58l1.46-1.8a12.16,12.16,0,0,0,2.85,1.29,10.33,10.33,0,0,0,3,.42,6.21,6.21,0,0,0,2.57-.43q.9-.42.9-1.11a.67.67,0,0,0-.26-.56,1.88,1.88,0,0,0-.75-.31,7.06,7.06,0,0,0-1.18-.13l-1.58-.08a20.94,20.94,0,0,1-2.81-.27,7.1,7.1,0,0,1-2-.59,3,3,0,0,1-1.2-1A2.48,2.48,0,0,1,186,269a2.89,2.89,0,0,1,1.56-2.57,8.88,8.88,0,0,1,4.58-1,11.58,11.58,0,0,1,6.48,1.62l-1.52,1.76A9.49,9.49,0,0,0,194.73,267.87Z"/><path class="cls-1" d="M216.59,267.87a10,10,0,0,0-2.47-.3,8.16,8.16,0,0,0-2.61.31c-.59.21-.88.49-.88.84s.32.64,1,.79a5.39,5.39,0,0,0,.85.14c.31,0,.63.06,1,.07l1.11,0c.39,0,.8,0,1.23.08a16.72,16.72,0,0,1,2.25.35,5.62,5.62,0,0,1,1.59.61,2.52,2.52,0,0,1,1,1,2.87,2.87,0,0,1,.32,1.38,3.13,3.13,0,0,1-1.64,2.8,9.27,9.27,0,0,1-4.8,1,14.34,14.34,0,0,1-3.81-.49,11,11,0,0,1-3.33-1.58l1.46-1.8a12.09,12.09,0,0,0,2.84,1.29,10.35,10.35,0,0,0,3,.42,6.24,6.24,0,0,0,2.57-.43c.59-.28.89-.65.89-1.11a.65.65,0,0,0-.26-.56,1.89,1.89,0,0,0-.74-.31,7.19,7.19,0,0,0-1.19-.13l-1.58-.08a21.11,21.11,0,0,1-2.81-.27,7.2,7.2,0,0,1-2-.59,2.94,2.94,0,0,1-1.19-1,2.41,2.41,0,0,1-.4-1.41,2.88,2.88,0,0,1,1.57-2.57,8.84,8.84,0,0,1,4.57-1,11.56,11.56,0,0,1,6.48,1.62L219,268.8A9.49,9.49,0,0,0,216.59,267.87Z"/><path class="cls-1" d="M256.1,271.19a5,5,0,0,1-1.9,4,7.66,7.66,0,0,1-2.48,1.33,10.38,10.38,0,0,1-6.24,0,7.46,7.46,0,0,1-2.46-1.33,5,5,0,0,1-1.41-1.8,5.16,5.16,0,0,1-.48-2.23,5.07,5.07,0,0,1,.48-2.21,5.26,5.26,0,0,1,1.42-1.79,7.65,7.65,0,0,1,2.49-1.35,10.22,10.22,0,0,1,6.19,0,7.65,7.65,0,0,1,2.49,1.35A5,5,0,0,1,256.1,271.19Zm-2.76,0a3.37,3.37,0,0,0-.33-1.5,3.31,3.31,0,0,0-.95-1.16,4.46,4.46,0,0,0-1.49-.76,7,7,0,0,0-3.91,0,4.46,4.46,0,0,0-1.49.76,3.31,3.31,0,0,0-.95,1.16,3.37,3.37,0,0,0-.33,1.5,3.6,3.6,0,0,0,.32,1.52,3.43,3.43,0,0,0,.95,1.17,4.58,4.58,0,0,0,1.48.75,6.59,6.59,0,0,0,2,.27,6.66,6.66,0,0,0,2-.27,4.63,4.63,0,0,0,1.49-.75,3.3,3.3,0,0,0,1.28-2.69Z"/><path class="cls-1" d="M268.44,267.8v2.28h6.43v2.1h-6.43v4.53h-2.67v-11H277.7v2.1Z"/><path class="cls-1" d="M298.17,276.71v-11h2.67v8.9h8.47v2.1Z"/><path class="cls-1" d="M318,276.71v-11h2.68v11Z"/><path class="cls-1" d="M333.56,267.8v2.28H340v2.1h-6.43v4.53h-2.67v-11h11.93v2.1Z"/><path class="cls-1" d="M351.81,276.71v-11h11.93v2.1h-9.26v2.28h6.44v2.1h-6.44v2.43h9.69v2.1Z"/><line class="cls-2" x1="51.25" y1="291.19" x2="366.06" y2="291.19"/><path class="cls-3" d="M300.16,86.39,207.93,0,117.15,86.39l34.24.07-.06.06,31.87.06,12.48,0,12.27,0,12.26,0,12.09,0,32.34-.06-.05,0Zm-79.9-5.85h-4.81l16.87-16,17.07,16Zm-53.85-.06,16.8-16,17.14,16h-4.7Zm38.52-69.32V76.58L186.4,59.22V28.8Zm24.55,47.71L211,76.5V11.08l18.53,17.36Zm6,.35V34.07L285,80.4l-26.79.06Zm-55.12-24.7V58.87L157.7,80.46l-25.53-.06Z"/><path class="cls-4" d="M123.76,145.63a22.76,22.76,0,0,1-2.22,10,23.84,23.84,0,0,1-6.37,8,30.14,30.14,0,0,1-10,5.32,41.73,41.73,0,0,1-13.06,1.91H67.81V120.43H94.62a33.27,33.27,0,0,1,12.1,2.09,29.12,29.12,0,0,1,9.16,5.54,24.3,24.3,0,0,1,5.83,8A23,23,0,0,1,123.76,145.63Zm-13,.29a17,17,0,0,0-1-5.91,12.15,12.15,0,0,0-3.32-4.89,17,17,0,0,0-6-3.35,28.47,28.47,0,0,0-9.09-1.26H82q0,7.71,0,15.12c0,5,0,10,0,15.12H91a26.56,26.56,0,0,0,8.24-1.19,19.22,19.22,0,0,0,6.19-3.24,14.64,14.64,0,0,0,3.93-4.75A12.25,12.25,0,0,0,110.75,145.92Z"/><path class="cls-4" d="M132.89,170.9l.07-50.47h46.41V130.8H147.11c0,1.68,0,3.35,0,5s0,3.33,0,5h27.59v10.08H147.11v9.57h33.18V170.9Z"/><path class="cls-4" d="M191,170.9,191,120.43h14.15V160h34.1V170.9Z"/><path class="cls-4" d="M273,130.8V171H258.67l-.07-40.17H237.52V120.43H294V130.8Z"/><path class="cls-4" d="M335.78,170.9l-4.31-9.43H306.21l-4.74,9.43H287.54l26.38-50.61h10.9l25.25,50.61ZM319,135.41l-7.86,15.84h15.57Z"/><path class="cls-3" d="M52.56,227.06a13,13,0,0,1-1.27,5.87,13.42,13.42,0,0,1-3.43,4.36,20.61,20.61,0,0,1-4.92,3,32.24,32.24,0,0,1-5.76,1.94,43.48,43.48,0,0,1-6,1c-2,.19-3.85.29-5.55.29a50,50,0,0,1-6.58-.4,38.07,38.07,0,0,1-6-1.26,46.18,46.18,0,0,1-6-2.23c-2-.91-4.31-2-6.76-3.31l4.53-9.79c2.36,1.05,4.49,2,6.4,2.77s3.67,1.45,5.27,2a37.24,37.24,0,0,0,4.39,1.19,19.43,19.43,0,0,0,3.75.39,34,34,0,0,0,4.95-.36,25.81,25.81,0,0,0,4.6-1,9.74,9.74,0,0,0,3.36-1.8,3.37,3.37,0,0,0,1.31-2.63,2.68,2.68,0,0,0-1.49-2.34,13.67,13.67,0,0,0-4.1-1.47c-1.23-.24-2.55-.45-4-.62s-2.88-.32-4.39-.46c-.8-.1-1.63-.18-2.47-.26s-1.7-.15-2.55-.25a63.2,63.2,0,0,1-7.18-1.29,24.38,24.38,0,0,1-6.4-2.49,13.41,13.41,0,0,1-4.57-4.21A11.59,11.59,0,0,1,0,207.12a12.55,12.55,0,0,1,1.27-5.8,13.82,13.82,0,0,1,3.36-4.25,18.92,18.92,0,0,1,4.81-2.91,35.29,35.29,0,0,1,5.63-1.84,40.13,40.13,0,0,1,5.76-.93c1.91-.17,3.67-.26,5.27-.26a48,48,0,0,1,12.7,1.66A59.93,59.93,0,0,1,51.36,198L47,207.12a53.88,53.88,0,0,0-10.78-4.07,41.36,41.36,0,0,0-10.16-1.33,32.46,32.46,0,0,0-6.26.5A14.93,14.93,0,0,0,16,203.48a5.07,5.07,0,0,0-2,1.62,3.15,3.15,0,0,0-.53,1.59,2.33,2.33,0,0,0,1.49,2,13.35,13.35,0,0,0,3.54,1.23,35.38,35.38,0,0,0,4.2.61c1.44.12,2.63.2,3.58.25a2.86,2.86,0,0,1,.56,0,3.11,3.11,0,0,0,.43,0q2.48.22,5.34.54a51.47,51.47,0,0,1,5.66,1,34.34,34.34,0,0,1,5.37,1.73,16.62,16.62,0,0,1,4.57,2.81,12.73,12.73,0,0,1,3.15,4.21A14,14,0,0,1,52.56,227.06Z"/><path class="cls-3" d="M93.1,202.8V243H78.81l-.07-40.17H57.66V192.43h56.52V202.8Z"/><path class="cls-3" d="M121.68,242.9l.07-50.47h46.41V202.8H135.9c0,1.68,0,3.35,0,5s0,3.33,0,5h27.59v10.08H135.9v9.57h33.18V242.9Z"/><path class="cls-3" d="M179.83,242.9l-.07-50.47h14.15V232H228V242.9Z"/><path class="cls-3" d="M237.34,242.9l-.07-50.47h14.15V232h34.1V242.9Z"/><path class="cls-3" d="M339.92,242.9l-4.31-9.43H310.35l-4.74,9.43H291.67l26.39-50.61H329l25.25,50.61Zm-16.84-35.49-7.85,15.84h15.56Z"/><path class="cls-3" d="M401,242.9l-18.53-19h-5.45v19h-14L363,192.43H394q9.4,0,14.29,4.18a13.87,13.87,0,0,1,4.88,11.08,11.44,11.44,0,0,1-1.27,5.3,15.9,15.9,0,0,1-3.43,4.46,21.38,21.38,0,0,1-5,3.38,26.28,26.28,0,0,1-5.83,2.13l16.91,17.42v2.52Zm-1.55-35.06a5.13,5.13,0,0,0-.36-1.87,3.63,3.63,0,0,0-1.2-1.62,6.57,6.57,0,0,0-2.33-1.12,13.61,13.61,0,0,0-3.75-.43H377.06v10.29c1.18,0,2.57,0,4.18,0s3.13,0,4.59,0h5.24c3,0,5.17-.55,6.47-1.66A4.78,4.78,0,0,0,399.49,207.84Z"/><path class="cls-3" d="M136.5,330.77l-.89-7.4-5.38,7.18h-1.32l-4.67-7.08-.83,7.3h-3.58l1.22-14,2.91,0,5.9,9,6.64-9,2.34,0,1.24,14Z"/><path class="cls-3" d="M144.83,330.77v-14h3.93v14Z"/><path class="cls-3" d="M169,323.75a6.33,6.33,0,0,1-.62,2.78,6.44,6.44,0,0,1-1.77,2.23,8.15,8.15,0,0,1-2.77,1.48,11.43,11.43,0,0,1-3.62.53h-6.76v-14h7.44a9.32,9.32,0,0,1,3.36.58,8.08,8.08,0,0,1,2.55,1.54,6.8,6.8,0,0,1,1.62,2.23A6.41,6.41,0,0,1,169,323.75Zm-3.62.08a4.75,4.75,0,0,0-.28-1.64,3.46,3.46,0,0,0-.92-1.36,5,5,0,0,0-1.67-.93,8,8,0,0,0-2.53-.35h-2.59c0,1.43,0,2.83,0,4.2s0,2.78,0,4.2h2.53a7.36,7.36,0,0,0,2.29-.33,5.29,5.29,0,0,0,1.72-.9A4,4,0,0,0,165,325.4,3.34,3.34,0,0,0,165.4,323.83Z"/><path class="cls-3" d="M187.33,328.51a11.65,11.65,0,0,1-1.08.83,7.65,7.65,0,0,1-1.43.79,9.68,9.68,0,0,1-1.9.59,11.44,11.44,0,0,1-2.48.23,9.31,9.31,0,0,1-2.84-.46,8.61,8.61,0,0,1-2.68-1.37,7.45,7.45,0,0,1-2-2.26,6.66,6.66,0,0,1-.05-6.16,7.67,7.67,0,0,1,1.89-2.27,8.71,8.71,0,0,1,2.63-1.44,9.26,9.26,0,0,1,3-.5,11.71,11.71,0,0,1,2.14.18,9.58,9.58,0,0,1,1.76.5,10.46,10.46,0,0,1,1.46.73c.45.28.87.56,1.28.85l-1.22,2.82c-.4-.29-.8-.56-1.19-.81a9.43,9.43,0,0,0-1.22-.65,8.09,8.09,0,0,0-1.34-.44,7.58,7.58,0,0,0-1.57-.16,5.13,5.13,0,0,0-1.72.29,4.43,4.43,0,0,0-1.43.84,4.09,4.09,0,0,0-1.33,3.11,4.17,4.17,0,0,0,2.76,4,4.66,4.66,0,0,0,1.7.31,7.26,7.26,0,0,0,1.59-.16,6.29,6.29,0,0,0,1.37-.45,8.33,8.33,0,0,0,1.25-.67c.4-.25.8-.52,1.19-.82l1.49,2.44Z"/><path class="cls-3" d="M194.7,329.85a3.27,3.27,0,0,1-.29,1.34,5.63,5.63,0,0,1-.78,1.28,6.19,6.19,0,0,1-1.1,1.07,4.6,4.6,0,0,1-1.27.71l-.72-1.6a2.08,2.08,0,0,0,.41-.3,6.39,6.39,0,0,0,.48-.44c.16-.16.32-.32.46-.48a2.34,2.34,0,0,0,.32-.42h-.1a1.17,1.17,0,0,1-.61-.15,1.31,1.31,0,0,1-.42-.39,1.64,1.64,0,0,1-.24-.52,2.5,2.5,0,0,1-.07-.54,1.28,1.28,0,0,1,.19-.69,1.76,1.76,0,0,1,.47-.51,2.77,2.77,0,0,1,.62-.31,2.16,2.16,0,0,1,.65-.11,1.92,1.92,0,0,1,1.44.57A2,2,0,0,1,194.7,329.85Z"/><path class="cls-3" d="M221.64,330.77,212,322.71c0,1.34,0,2.68,0,4s0,2.7,0,4h-3.82v-14h2.36l9.26,7.7c0-1.29,0-2.57,0-3.85s0-2.55,0-3.85h3.75v14Z"/><path class="cls-3" d="M227.72,330.77l0-14h12.89v2.88h-9c0,.47,0,.93,0,1.39s0,.93,0,1.39h7.66v2.8h-7.64v2.66h9.21v2.9Z"/><path class="cls-3" d="M255.41,330.77l-5.15-5.28h-1.52v5.28h-3.89l0-14h8.63a6,6,0,0,1,4,1.16,3.88,3.88,0,0,1,1.36,3.08,3.13,3.13,0,0,1-.36,1.47,4.19,4.19,0,0,1-.95,1.24,5.89,5.89,0,0,1-1.38.94,7.32,7.32,0,0,1-1.62.59l4.7,4.84v.7ZM255,321a1.63,1.63,0,0,0-.09-.52,1.12,1.12,0,0,0-.34-.45,2,2,0,0,0-.65-.31,3.76,3.76,0,0,0-1-.12h-4.11v2.86h3.89a2.76,2.76,0,0,0,1.8-.46A1.31,1.31,0,0,0,255,321Z"/><path class="cls-3" d="M278,326.66a6.23,6.23,0,0,1-1.53,2.33,6.77,6.77,0,0,1-2.43,1.47,9.48,9.48,0,0,1-3.21.51,10,10,0,0,1-3.31-.51A6.92,6.92,0,0,1,265,329a6.24,6.24,0,0,1-1.55-2.27,7.78,7.78,0,0,1-.54-3c0-1.16,0-2.33,0-3.51s0-2.35,0-3.51h3.85l0,6.88a5.75,5.75,0,0,0,.3,2,3.25,3.25,0,0,0,.81,1.3,3,3,0,0,0,1.26.71,5.52,5.52,0,0,0,1.62.22,4.08,4.08,0,0,0,1.5-.26,3.13,3.13,0,0,0,1.22-.8,3.79,3.79,0,0,0,.82-1.35,5.44,5.44,0,0,0,.29-1.89v-6.8h3.87v6.84A8.27,8.27,0,0,1,278,326.66Z"/><path class="cls-3" d="M282.54,330.77l0-14h3.93v11h9.47v3Z"/></svg>